<mxfile host="app.diagrams.net" modified="2020-06-29T15:15:21.710Z" agent="5.0 (Windows NT 10.0; Win64; x64) AppleWebKit/537.36 (KHTML, like Gecko) Chrome/83.0.4103.106 Safari/537.36" etag="9kulMFNtU1FKwl9lxKfy" version="13.3.5" type="github">
  <diagram id="vCH8033zbHQZ5CnyX1eL" name="Page-1">
    <mxGraphModel dx="2272" dy="745" grid="1" gridSize="10" guides="1" tooltips="1" connect="1" arrows="1" fold="1" page="1" pageScale="1" pageWidth="850" pageHeight="1100" math="0" shadow="0">
      <root>
        <mxCell id="0" />
        <mxCell id="1" parent="0" />
        <mxCell id="uA97szCd3nxO0NDhHa5H-1" value="" style="rounded=0;whiteSpace=wrap;html=1;" vertex="1" parent="1">
          <mxGeometry x="180" y="560" width="10" height="390" as="geometry" />
        </mxCell>
        <mxCell id="uA97szCd3nxO0NDhHa5H-2" value="" style="rounded=0;whiteSpace=wrap;html=1;" vertex="1" parent="1">
          <mxGeometry x="508" y="560" width="10" height="390" as="geometry" />
        </mxCell>
        <mxCell id="uA97szCd3nxO0NDhHa5H-3" value="" style="rounded=0;whiteSpace=wrap;html=1;" vertex="1" parent="1">
          <mxGeometry x="690" y="560" width="10" height="390" as="geometry" />
        </mxCell>
        <mxCell id="uA97szCd3nxO0NDhHa5H-4" value="add-product-service" style="text;html=1;align=center;verticalAlign=middle;resizable=0;points=[];autosize=1;" vertex="1" parent="1">
          <mxGeometry x="140" y="540" width="120" height="20" as="geometry" />
        </mxCell>
        <mxCell id="uA97szCd3nxO0NDhHa5H-5" value="allocate-product-service&lt;br&gt;" style="text;html=1;align=center;verticalAlign=middle;resizable=0;points=[];autosize=1;" vertex="1" parent="1">
          <mxGeometry x="428" y="540" width="140" height="20" as="geometry" />
        </mxCell>
        <mxCell id="uA97szCd3nxO0NDhHa5H-6" value="available-quantity-service" style="text;html=1;align=center;verticalAlign=middle;resizable=0;points=[];autosize=1;" vertex="1" parent="1">
          <mxGeometry x="671" y="540" width="150" height="20" as="geometry" />
        </mxCell>
        <mxCell id="uA97szCd3nxO0NDhHa5H-7" value="" style="endArrow=none;dashed=1;html=1;jumpSize=5;strokeWidth=2;" edge="1" parent="1">
          <mxGeometry width="50" height="50" relative="1" as="geometry">
            <mxPoint x="184.5" y="1120" as="sourcePoint" />
            <mxPoint x="184.5" y="950" as="targetPoint" />
          </mxGeometry>
        </mxCell>
        <mxCell id="uA97szCd3nxO0NDhHa5H-8" value="" style="endArrow=none;dashed=1;html=1;strokeWidth=2;" edge="1" parent="1">
          <mxGeometry width="50" height="50" relative="1" as="geometry">
            <mxPoint x="512.5" y="1120" as="sourcePoint" />
            <mxPoint x="512.5" y="950" as="targetPoint" />
          </mxGeometry>
        </mxCell>
        <mxCell id="uA97szCd3nxO0NDhHa5H-9" value="" style="endArrow=none;dashed=1;html=1;strokeWidth=2;" edge="1" parent="1">
          <mxGeometry width="50" height="50" relative="1" as="geometry">
            <mxPoint x="694.5" y="1120" as="sourcePoint" />
            <mxPoint x="694.5" y="950" as="targetPoint" />
          </mxGeometry>
        </mxCell>
        <mxCell id="uA97szCd3nxO0NDhHa5H-10" value="" style="rounded=0;whiteSpace=wrap;html=1;" vertex="1" parent="1">
          <mxGeometry x="-20" y="560" width="10" height="390" as="geometry" />
        </mxCell>
        <mxCell id="uA97szCd3nxO0NDhHa5H-11" value="" style="endArrow=none;dashed=1;html=1;jumpSize=5;strokeWidth=2;" edge="1" parent="1">
          <mxGeometry width="50" height="50" relative="1" as="geometry">
            <mxPoint x="-15.5" y="1120" as="sourcePoint" />
            <mxPoint x="-15.5" y="950" as="targetPoint" />
          </mxGeometry>
        </mxCell>
        <mxCell id="uA97szCd3nxO0NDhHa5H-12" value="Customer" style="text;html=1;align=center;verticalAlign=middle;resizable=0;points=[];autosize=1;" vertex="1" parent="1">
          <mxGeometry x="-20" y="545" width="70" height="20" as="geometry" />
        </mxCell>
        <mxCell id="uA97szCd3nxO0NDhHa5H-13" value="" style="shape=umlActor;verticalLabelPosition=bottom;labelBackgroundColor=#ffffff;verticalAlign=top;html=1;outlineConnect=0;" vertex="1" parent="1">
          <mxGeometry y="520" width="20" height="20" as="geometry" />
        </mxCell>
        <mxCell id="uA97szCd3nxO0NDhHa5H-14" value="" style="rounded=0;whiteSpace=wrap;html=1;" vertex="1" parent="1">
          <mxGeometry x="320" y="560" width="10" height="390" as="geometry" />
        </mxCell>
        <mxCell id="uA97szCd3nxO0NDhHa5H-15" value="" style="endArrow=none;dashed=1;html=1;strokeWidth=2;" edge="1" parent="1">
          <mxGeometry width="50" height="50" relative="1" as="geometry">
            <mxPoint x="324.5" y="1120" as="sourcePoint" />
            <mxPoint x="324.5" y="950" as="targetPoint" />
          </mxGeometry>
        </mxCell>
        <mxCell id="uA97szCd3nxO0NDhHa5H-16" value="payment-service" style="text;html=1;align=center;verticalAlign=middle;resizable=0;points=[];autosize=1;" vertex="1" parent="1">
          <mxGeometry x="310" y="540" width="100" height="20" as="geometry" />
        </mxCell>
        <mxCell id="uA97szCd3nxO0NDhHa5H-17" value="" style="endArrow=classic;html=1;entryX=-0.2;entryY=0.131;entryDx=0;entryDy=0;entryPerimeter=0;" edge="1" parent="1" target="uA97szCd3nxO0NDhHa5H-1">
          <mxGeometry width="50" height="50" relative="1" as="geometry">
            <mxPoint x="-10" y="615" as="sourcePoint" />
            <mxPoint x="40" y="565" as="targetPoint" />
          </mxGeometry>
        </mxCell>
        <mxCell id="uA97szCd3nxO0NDhHa5H-18" value="" style="endArrow=classic;html=1;entryX=-0.1;entryY=0.2;entryDx=0;entryDy=0;entryPerimeter=0;" edge="1" parent="1" target="uA97szCd3nxO0NDhHa5H-3">
          <mxGeometry width="50" height="50" relative="1" as="geometry">
            <mxPoint x="190" y="630" as="sourcePoint" />
            <mxPoint x="240" y="580" as="targetPoint" />
          </mxGeometry>
        </mxCell>
        <mxCell id="uA97szCd3nxO0NDhHa5H-19" value="" style="endArrow=classic;html=1;exitX=0;exitY=0.25;exitDx=0;exitDy=0;entryX=1;entryY=0.25;entryDx=0;entryDy=0;" edge="1" parent="1" source="uA97szCd3nxO0NDhHa5H-3" target="uA97szCd3nxO0NDhHa5H-1">
          <mxGeometry width="50" height="50" relative="1" as="geometry">
            <mxPoint x="600" y="700" as="sourcePoint" />
            <mxPoint x="650" y="650" as="targetPoint" />
          </mxGeometry>
        </mxCell>
        <mxCell id="uA97szCd3nxO0NDhHa5H-20" value="Customer add product&lt;br&gt;to the cart" style="text;html=1;align=center;verticalAlign=middle;resizable=0;points=[];autosize=1;" vertex="1" parent="1">
          <mxGeometry x="20" y="580" width="130" height="30" as="geometry" />
        </mxCell>
        <mxCell id="uA97szCd3nxO0NDhHa5H-21" value="Check if the desired&amp;nbsp;&lt;br&gt;quantity is available" style="text;html=1;align=center;verticalAlign=middle;resizable=0;points=[];autosize=1;" vertex="1" parent="1">
          <mxGeometry x="370" y="600" width="120" height="30" as="geometry" />
        </mxCell>
        <mxCell id="uA97szCd3nxO0NDhHa5H-22" value="" style="endArrow=classic;html=1;exitX=-0.2;exitY=0.294;exitDx=0;exitDy=0;exitPerimeter=0;entryX=1.2;entryY=0.297;entryDx=0;entryDy=0;entryPerimeter=0;" edge="1" parent="1" source="uA97szCd3nxO0NDhHa5H-1" target="uA97szCd3nxO0NDhHa5H-10">
          <mxGeometry width="50" height="50" relative="1" as="geometry">
            <mxPoint x="80" y="690" as="sourcePoint" />
            <mxPoint x="130" y="640" as="targetPoint" />
          </mxGeometry>
        </mxCell>
        <mxCell id="uA97szCd3nxO0NDhHa5H-23" value="If available add&lt;br&gt;to the cart&lt;br&gt;otherwise error" style="text;html=1;align=center;verticalAlign=middle;resizable=0;points=[];autosize=1;" vertex="1" parent="1">
          <mxGeometry x="40" y="680" width="100" height="50" as="geometry" />
        </mxCell>
        <mxCell id="uA97szCd3nxO0NDhHa5H-24" value="" style="endArrow=classic;html=1;entryX=-0.1;entryY=0.559;entryDx=0;entryDy=0;entryPerimeter=0;" edge="1" parent="1" target="uA97szCd3nxO0NDhHa5H-2">
          <mxGeometry width="50" height="50" relative="1" as="geometry">
            <mxPoint x="-22" y="778" as="sourcePoint" />
            <mxPoint x="60" y="740" as="targetPoint" />
          </mxGeometry>
        </mxCell>
        <mxCell id="uA97szCd3nxO0NDhHa5H-25" value="Once product selection&lt;br&gt;done, user seeks allocation" style="text;html=1;align=center;verticalAlign=middle;resizable=0;points=[];autosize=1;" vertex="1" parent="1">
          <mxGeometry x="10" y="790" width="160" height="30" as="geometry" />
        </mxCell>
        <mxCell id="uA97szCd3nxO0NDhHa5H-26" value="" style="endArrow=classic;html=1;entryX=1.1;entryY=0.669;entryDx=0;entryDy=0;entryPerimeter=0;exitX=0;exitY=0.664;exitDx=0;exitDy=0;exitPerimeter=0;" edge="1" parent="1" source="uA97szCd3nxO0NDhHa5H-2" target="uA97szCd3nxO0NDhHa5H-14">
          <mxGeometry width="50" height="50" relative="1" as="geometry">
            <mxPoint x="430" y="810" as="sourcePoint" />
            <mxPoint x="480" y="760" as="targetPoint" />
          </mxGeometry>
        </mxCell>
        <mxCell id="uA97szCd3nxO0NDhHa5H-27" value="proceeds with payment&lt;br&gt;for the items in cart" style="text;html=1;align=center;verticalAlign=middle;resizable=0;points=[];autosize=1;" vertex="1" parent="1">
          <mxGeometry x="355" y="820" width="140" height="30" as="geometry" />
        </mxCell>
        <mxCell id="uA97szCd3nxO0NDhHa5H-28" value="" style="endArrow=classic;html=1;exitX=1;exitY=0.803;exitDx=0;exitDy=0;exitPerimeter=0;entryX=1;entryY=0.812;entryDx=0;entryDy=0;entryPerimeter=0;" edge="1" parent="1" source="uA97szCd3nxO0NDhHa5H-14" target="uA97szCd3nxO0NDhHa5H-2">
          <mxGeometry width="50" height="50" relative="1" as="geometry">
            <mxPoint x="340" y="860" as="sourcePoint" />
            <mxPoint x="500" y="830" as="targetPoint" />
          </mxGeometry>
        </mxCell>
        <mxCell id="uA97szCd3nxO0NDhHa5H-29" value="Payment Ack" style="text;html=1;align=center;verticalAlign=middle;resizable=0;points=[];autosize=1;" vertex="1" parent="1">
          <mxGeometry x="370" y="875" width="90" height="20" as="geometry" />
        </mxCell>
        <mxCell id="uA97szCd3nxO0NDhHa5H-30" value="" style="endArrow=classic;html=1;entryX=0;entryY=0.846;entryDx=0;entryDy=0;entryPerimeter=0;exitX=0.9;exitY=0.841;exitDx=0;exitDy=0;exitPerimeter=0;" edge="1" parent="1" source="uA97szCd3nxO0NDhHa5H-2" target="uA97szCd3nxO0NDhHa5H-3">
          <mxGeometry width="50" height="50" relative="1" as="geometry">
            <mxPoint x="513" y="858" as="sourcePoint" />
            <mxPoint x="580" y="840" as="targetPoint" />
          </mxGeometry>
        </mxCell>
        <mxCell id="uA97szCd3nxO0NDhHa5H-31" value="Once payment is success,&lt;br&gt;service seeks to update the stock&lt;br&gt;(allocate the product to user)&lt;br&gt;&lt;b&gt;[WITH LOCK]&lt;/b&gt;" style="text;html=1;align=center;verticalAlign=middle;resizable=0;points=[];autosize=1;" vertex="1" parent="1">
          <mxGeometry x="510" y="820" width="190" height="60" as="geometry" />
        </mxCell>
        <mxCell id="uA97szCd3nxO0NDhHa5H-32" value="" style="endArrow=classic;html=1;exitX=-0.1;exitY=0.9;exitDx=0;exitDy=0;exitPerimeter=0;" edge="1" parent="1" source="uA97szCd3nxO0NDhHa5H-3">
          <mxGeometry width="50" height="50" relative="1" as="geometry">
            <mxPoint x="600" y="950" as="sourcePoint" />
            <mxPoint x="520" y="910" as="targetPoint" />
          </mxGeometry>
        </mxCell>
        <mxCell id="uA97szCd3nxO0NDhHa5H-33" value="If success, cascade the&lt;br&gt;success to customer. And &lt;br&gt;proceed&amp;nbsp;with shipping service.&lt;br&gt;If failure, go for &lt;br&gt;reverse payment." style="text;html=1;align=center;verticalAlign=middle;resizable=0;points=[];autosize=1;" vertex="1" parent="1">
          <mxGeometry x="510" y="920" width="180" height="80" as="geometry" />
        </mxCell>
        <mxCell id="uA97szCd3nxO0NDhHa5H-34" value="" style="endArrow=classic;html=1;entryX=1.3;entryY=0.941;entryDx=0;entryDy=0;entryPerimeter=0;exitX=-0.011;exitY=0.088;exitDx=0;exitDy=0;exitPerimeter=0;" edge="1" parent="1" source="uA97szCd3nxO0NDhHa5H-33" target="uA97szCd3nxO0NDhHa5H-1">
          <mxGeometry width="50" height="50" relative="1" as="geometry">
            <mxPoint x="400" y="950" as="sourcePoint" />
            <mxPoint x="450" y="900" as="targetPoint" />
          </mxGeometry>
        </mxCell>
        <mxCell id="uA97szCd3nxO0NDhHa5H-35" value="purge the order&lt;br&gt;from active space" style="text;html=1;align=center;verticalAlign=middle;resizable=0;points=[];autosize=1;" vertex="1" parent="1">
          <mxGeometry x="350" y="930" width="110" height="30" as="geometry" />
        </mxCell>
      </root>
    </mxGraphModel>
  </diagram>
</mxfile>
